<svg width="1155" height="647" viewBox="0 0 1155 647" fill="none" xmlns="http://www.w3.org/2000/svg">
<path fill-rule="evenodd" clip-rule="evenodd" d="M1153 647V594.361H1092V647H1090V594.361H1029V647H1027V594.361H966V647H964V594.361H902V647H900V594.361H839V647H837V594.361H776V647H774V594.361H713V647H711V594.361H650V647H648V594.361H587V647H522V594.361H461V647H459V594.361H397V647H395V594.361H334V647H332V594.361H271V647H269V594.361H208V647H206V594.361H144V647H142V594.361H81V647H79V594.361H2V647H0L5.65625e-05 0H2.00006L2.00005 23.8396H79.0001V6.9061e-06L81.0001 7.0809e-06V23.8396H142V1.24137e-05L144 1.25886e-05V23.8396H206V1.80088e-05L208 1.81836e-05V23.8396H269V2.35164e-05L271 2.36913e-05V23.8396H332V2.9024e-05L334 2.91989e-05V23.8396H395V3.45317e-05L397 3.47065e-05V23.8396H459V4.01267e-05L461 4.03016e-05V23.8396H522V4.56344e-05L524 4.58092e-05V23.8396H585V5.1142e-05L587 5.13169e-05V23.8396L648 23.8397V5.66496e-05L650 5.68245e-05V23.8397H711V6.21573e-05L713 6.23321e-05V23.8397H774V6.76649e-05L776 6.78398e-05V23.8397H837V7.31726e-05L839 7.33474e-05V23.8397H900V7.86802e-05L902 7.8855e-05V23.8397H964V8.42752e-05L966 8.44501e-05V23.8397H1027V8.97829e-05L1029 8.99577e-05V23.8397H1090V9.52905e-05L1092 9.54654e-05V23.8397H1153V0.000100798L1155 0.000100973V647H1153ZM2.00005 25.8396V87.3418H79L79.0001 25.8396H2.00005ZM2.00005 89.3418L2.00004 150.244H79V89.3418H2.00005ZM2.00004 152.244V213.746H79V152.244H2.00004ZM2.00004 215.746L2.00003 276.649H79V215.746H2.00004ZM2.00003 278.649V339.552H79V278.649H2.00003ZM2.00003 341.552L2.00002 403.054H79V341.552H2.00003ZM2.00002 405.054V465.957H79V405.054H2.00002ZM2.00002 467.957L2.00001 528.859H79V467.957H2.00002ZM2.00001 530.859L2 592.361H79V530.859H2.00001ZM142 592.361H81V530.859H142V592.361ZM142 528.859H81V467.957H142V528.859ZM142 465.957H81V405.054H142V465.957ZM142 403.054H81V341.552H142V403.054ZM144 403V403.054H206V403H144ZM142 339.552H81V278.649H142V339.552ZM142 276.649H81V215.746H142V276.649ZM142 213.746H81V152.244H142V213.746ZM142 150.244H81V89.3418H142V150.244ZM142 87.3418H81L81.0001 25.8396H142V87.3418ZM144 25.8396V87.3418H206V25.8396H144ZM144 89.3418V150.244H206V89.3418H144ZM144 152.244V213.746H206V152.244H144ZM144 215.746V276.649H205.723V215.746H144ZM144 278.649V339.552H206V278.649H144ZM144 405.054V465.957H206V405.054H144ZM144 467.957V528.859H206V467.957H144ZM144 530.859V592.361H206V530.859H144ZM269 592.361H208V530.859H269V592.361ZM269 528.859H208V467.957H269V528.859ZM269 465.957H208V405.054H269V465.957ZM269 403.054H208V341.552H269V403.054ZM269 339.552H208V278.649H269V339.552ZM269 213.746H208V152.244H269V213.746ZM269 150.244H208V89.3418H269V150.244ZM269 87.3418H208V25.8396H269V87.3418ZM271 25.8396V87.3418H332V25.8396H271ZM271 89.3418V150.244H332V89.3418H271ZM271 152.244V213.746H332V152.244H271ZM271 215.746V276.649H332V215.746H271ZM271 278.649V339.552H332V278.649H271ZM271 341.552V403.054H332V341.552H271ZM271 405.054V465.957H332V405.054H271ZM271 467.957V528.859H332V467.957H271ZM271 530.859V592.361H332V530.859H271ZM395 592.361H334V530.859H395V592.361ZM395 528.859H334V467.957H395V528.859ZM395 465.957H334V405.054H395V465.957ZM395 403.054H334V341.552H395V403.054ZM395 339.552H334V278.649H395V339.552ZM395 276.649H334V215.746H395V276.649ZM395 150.244H334V89.3418H395V150.244ZM395 87.3418H334V25.8396H395V87.3418ZM1153 25.8397H1092V87.3419H1153V25.8397ZM1090 25.8397H1029V87.3419H1090V25.8397ZM1027 25.8397H966V87.3419H1027V25.8397ZM964 25.8397H902V87.3419H964V25.8397ZM900 25.8397H839V87.3419H900V25.8397ZM837 25.8397H776V87.3419H837V25.8397ZM774 25.8397H713V87.3419H774V25.8397ZM711 25.8397H650V87.3419H711V25.8397ZM648 25.8397L587 25.8396V87.3418L648 87.3419V25.8397ZM585 25.8396H524V87.3418H585V25.8396ZM522 25.8396H461V87.3418H522V25.8396ZM459 25.8396H397V87.3418H459V25.8396ZM397 150.244V89.3418H459V150.244H397ZM461 150.244V89.3418H522V150.244H461ZM524 150.244V89.3418H585V150.244H524ZM587 150.244V89.3418L648 89.3419V150.244H587ZM650 150.244V89.3419H711V150.244H650ZM776 150.244V89.3419H837V150.244H776ZM839 150.244V89.3419H900V150.244H839ZM902 150.244V89.3419H964V150.244H902ZM966 150.244V89.3419H1027V150.244H966ZM1029 150.244V89.3419H1090V150.244H1029ZM1092 150.244V89.3419H1153V150.244H1092ZM1153 152.244H1092V213.746H1153V152.244ZM1090 152.244H1029V213.746H1090V152.244ZM1027 152.244H966V213.746H1027V152.244ZM964 152.244H902V213.746H964V152.244ZM900 152.244H839V213.746H900V152.244ZM837 152.244H776V213.746H837V152.244ZM774 152.244H713V213.746H774V152.244ZM711 152.244H650V213.746H711V152.244ZM648 152.244H587V213.746H648V152.244ZM585 152.244H524V213.746H585V152.244ZM522 152.244H461V213.746H522V152.244ZM459 152.244H397V213.746H459V152.244ZM397 276.649V215.746H459V276.649H397ZM461 276.649V215.746H522V276.649H461ZM524 276.649V215.746H585V276.649H524ZM587 276.649V215.746H648V276.649H587ZM650 276.649V215.746H711V276.649H650ZM713 276.649V215.746H774V276.649H713ZM776 276.649V215.746H837V276.649H776ZM839 276.649V215.746H900V276.649H839ZM902 276.649V215.746H964V276.649H902ZM966 276.649V215.746H1027V276.649H966ZM1029 276.649V215.746H1090V276.649H1029ZM1092 276.649V215.746H1153V276.649H1092ZM1153 278.649H1092V339.552H1153V278.649ZM1090 278.649H1029V339.552H1090V278.649ZM1027 278.649H966V339.552H1027V278.649ZM964 278.649H902V339.552H964V278.649ZM900 278.649H839V339.552H900V278.649ZM774 278.649H713V339.552H774V278.649ZM711 278.649H650V339.552H711V278.649ZM648 278.649H587V339.552H648V278.649ZM585 278.649H524V339.552H585V278.649ZM458 339.552V278.649H397V339.552H458ZM397 403.054V341.552H459V403.054H397ZM461 403.054V341.552H522V403.054H461ZM524 403.054V341.552H585V403.054H524ZM587 403.054V341.552H648V403.054H587ZM650 403.054V341.552H711V403.054H650ZM713 403.054V341.552H774V403.054H713ZM776 403.054V341.552H837V403.054H776ZM839 403.054V341.552H900V403.054H839ZM902 403.054V341.552H964V403.054H902ZM966 403.054V341.552H1027V403.054H966ZM1029 403.054V341.552H1090V403.054H1029ZM1092 403.054V341.552H1153V403.054H1092ZM1153 405.054H1092V465.957H1153V405.054ZM1090 405.054H1029V465.957H1090V405.054ZM1027 405.054H966V465.957H1027V405.054ZM964 405.054H902V465.957H964V405.054ZM900 405.054H839V465.957H900V405.054ZM837 405.054H776V465.957H837V405.054ZM774 405.054H713V465.957H774V405.054ZM711 405.054H650V465.957H711V405.054ZM648 405.054H587V465.957H648V405.054ZM585 405.054H524V465.957H585V405.054ZM522 405.054H461V465.957H522V405.054ZM397 528.859V467.957H459V528.859H397ZM461 528.859V467.957H522V528.859H461ZM524 528.859V467.957H585V528.859H524ZM587 528.859V467.957H648V528.859H587ZM650 528.859V467.957H711V528.859H650ZM713 528.859V467.957H774V528.859H713ZM776 528.859V467.957H837V528.859H776ZM839 528.859V467.957H900V528.859H839ZM902 528.859V467.957H964V528.859H902ZM966 528.859V467.957H1027V528.859H966ZM1029 528.859V467.957H1090V528.859H1029ZM1092 528.859V467.957H1153V528.859H1092ZM1153 530.859H1092V592.361H1153V530.859ZM1090 530.859H1029V592.361H1090V530.859ZM1027 530.859H966V592.361H1027V530.859ZM964 530.859H902V592.361H964V530.859ZM900 530.859H839V530.877H900V530.859ZM837 530.859H776V592.361H837V530.859ZM774 530.859H713V592.361H774V530.859ZM711 530.859H650V592.361H711V530.859ZM648 530.859H587V592.361H648V530.859ZM585 530.859H524V592.361H585V530.859ZM522 530.859H461V592.361H522V530.859ZM459 530.859H397V592.361H459V530.859Z" fill="url(#paint0_radial_104_289)" fill-opacity="0.75"/>
<defs>
<radialGradient id="paint0_radial_104_289" cx="0" cy="0" r="1" gradientUnits="userSpaceOnUse" gradientTransform="translate(539 222) rotate(89.7794) scale(519.504 927.399)">
<stop stop-color="#909EBE" stop-opacity="0.24"/>
<stop offset="0.72525" stop-color="#909EBE" stop-opacity="0"/>
</radialGradient>
</defs>
</svg>
