<svg width="392" height="140" viewBox="0 0 392 140" fill="none" xmlns="http://www.w3.org/2000/svg">
<g filter="url(#filter0_dd_26_138)">
<rect x="280" y="44.08" width="9.6" height="68.16" fill="#636AE8"/>
<rect x="291.733" y="61.36" width="9.6" height="50.88" fill="#CED0F8"/>
<rect x="317.333" y="78.64" width="9.6" height="33.6" fill="#636AE8"/>
<rect x="329.067" y="22" width="9.6" height="90.24" fill="#CED0F8"/>
<rect x="354.667" y="65.2" width="9.6" height="47.04" fill="#636AE8"/>
<rect x="366.4" y="81.52" width="9.6" height="30.72" fill="#CED0F8"/>
<path d="M17.5 115.5L22 111L26.5 115.5H17.5Z" fill="#14923E"/>
<path d="M17.6506 21.8182L20.6733 30.3892H20.7926L23.8153 21.8182L25.108 21.8182L21.3693 32H20.0966L16.358 21.8182H17.6506ZM29.0256 32.1591C28.2898 32.1591 27.6551 31.9967 27.1214 31.6719C26.5911 31.3438 26.1818 30.8864 25.8935 30.2997C25.6084 29.7098 25.4659 29.0237 25.4659 28.2415C25.4659 27.4593 25.6084 26.7699 25.8935 26.1733C26.1818 25.5734 26.5829 25.1061 27.0966 24.7713C27.6136 24.4332 28.2169 24.2642 28.9062 24.2642C29.304 24.2642 29.6967 24.3305 30.0845 24.4631C30.4723 24.5956 30.8253 24.8111 31.1435 25.1094C31.4616 25.4044 31.7152 25.7955 31.9041 26.2827C32.093 26.7699 32.1875 27.3698 32.1875 28.0824V28.5795L26.3011 28.5795V27.5653L30.9943 27.5653C30.9943 27.1345 30.9081 26.75 30.7358 26.4119C30.5668 26.0739 30.3248 25.8071 30.0099 25.6115C29.6984 25.416 29.3305 25.3182 28.9062 25.3182C28.4389 25.3182 28.0346 25.4342 27.6932 25.6662C27.3551 25.8949 27.0949 26.1932 26.9126 26.5611C26.7304 26.929 26.6392 27.3234 26.6392 27.7443V28.4205C26.6392 28.9972 26.7386 29.486 26.9375 29.8871C27.1397 30.2848 27.4197 30.5881 27.7777 30.7969C28.1357 31.0024 28.5516 31.1051 29.0256 31.1051C29.3338 31.1051 29.6122 31.062 29.8608 30.9759C30.1127 30.8864 30.3298 30.7538 30.5121 30.5781C30.6944 30.3991 30.8352 30.1771 30.9347 29.9119L32.0682 30.2301C31.9489 30.6146 31.7483 30.9527 31.4666 31.2443C31.1849 31.5327 30.8369 31.758 30.4226 31.9205C30.0083 32.0795 29.5426 32.1591 29.0256 32.1591ZM33.9723 32V24.3636L35.1058 24.3636V25.517H35.1854C35.3246 25.1392 35.5765 24.8326 35.9411 24.5973C36.3056 24.362 36.7166 24.2443 37.174 24.2443C37.2602 24.2443 37.3679 24.246 37.4972 24.2493C37.6264 24.2526 37.7242 24.2576 37.7905 24.2642V25.4574C37.7507 25.4474 37.6596 25.4325 37.517 25.4126C37.3778 25.3894 37.2304 25.3778 37.0746 25.3778C36.7034 25.3778 36.3719 25.4557 36.0803 25.6115C35.7919 25.764 35.5632 25.9761 35.3942 26.2479C35.2285 26.5163 35.1456 26.8229 35.1456 27.1676V32H33.9723ZM39.1813 32V24.3636H40.3546V32H39.1813ZM39.7779 23.0909C39.5492 23.0909 39.352 23.013 39.1863 22.8572C39.0239 22.7015 38.9426 22.5142 38.9426 22.2955C38.9426 22.0767 39.0239 21.8894 39.1863 21.7337C39.352 21.5779 39.5492 21.5 39.7779 21.5C40.0066 21.5 40.2021 21.5779 40.3645 21.7337C40.5302 21.8894 40.6131 22.0767 40.6131 22.2955C40.6131 22.5142 40.5302 22.7015 40.3645 22.8572C40.2021 23.013 40.0066 23.0909 39.7779 23.0909ZM45.9041 24.3636V25.358H41.7876V24.3636H45.9041ZM43.0206 32V23.3097C43.0206 22.8722 43.1233 22.5076 43.3288 22.2159C43.5343 21.9242 43.8011 21.7055 44.1293 21.5597C44.4574 21.4138 44.8037 21.3409 45.1683 21.3409C45.4567 21.3409 45.692 21.3641 45.8743 21.4105C46.0566 21.4569 46.1925 21.5 46.282 21.5398L45.9439 22.554C45.8842 22.5341 45.8014 22.5092 45.6953 22.4794C45.5926 22.4496 45.4567 22.4347 45.2876 22.4347C44.8999 22.4347 44.6198 22.5324 44.4474 22.728C44.2784 22.9235 44.1939 23.2102 44.1939 23.5881V32H43.0206ZM47.5485 32V24.3636H48.7218L48.7218 32H47.5485ZM48.1451 23.0909C47.9164 23.0909 47.7192 23.013 47.5534 22.8572C47.391 22.7015 47.3098 22.5142 47.3098 22.2955C47.3098 22.0767 47.391 21.8894 47.5534 21.7337C47.7192 21.5779 47.9164 21.5 48.1451 21.5C48.3738 21.5 48.5693 21.5779 48.7317 21.7337C48.8974 21.8894 48.9803 22.0767 48.9803 22.2955C48.9803 22.5142 48.8974 22.7015 48.7317 22.8572C48.5693 23.013 48.3738 23.0909 48.1451 23.0909ZM54.0724 32.1591C53.3366 32.1591 52.7019 31.9967 52.1683 31.6719C51.638 31.3438 51.2287 30.8864 50.9403 30.2997C50.6553 29.7098 50.5128 29.0237 50.5128 28.2415C50.5128 27.4593 50.6553 26.7699 50.9403 26.1733C51.2287 25.5734 51.6297 25.1061 52.1435 24.7713C52.6605 24.4332 53.2637 24.2642 53.9531 24.2642C54.3509 24.2642 54.7436 24.3305 55.1314 24.4631C55.5192 24.5956 55.8722 24.8111 56.1903 25.1094C56.5085 25.4044 56.7621 25.7955 56.951 26.2827C57.1399 26.7699 57.2344 27.3698 57.2344 28.0824V28.5795L51.348 28.5795V27.5653L56.0412 27.5653C56.0412 27.1345 55.955 26.75 55.7827 26.4119C55.6136 26.0739 55.3717 25.8071 55.0568 25.6115C54.7453 25.416 54.3774 25.3182 53.9531 25.3182C53.4858 25.3182 53.0814 25.4342 52.7401 25.6662C52.402 25.8949 52.1418 26.1932 51.9595 26.5611C51.7772 26.929 51.6861 27.3234 51.6861 27.7443V28.4205C51.6861 28.9972 51.7855 29.486 51.9844 29.8871C52.1866 30.2848 52.4666 30.5881 52.8246 30.7969C53.1825 31.0024 53.5985 31.1051 54.0724 31.1051C54.3807 31.1051 54.6591 31.062 54.9077 30.9759C55.1596 30.8864 55.3767 30.7538 55.5589 30.5781C55.7412 30.3991 55.8821 30.1771 55.9815 29.9119L57.1151 30.2301C56.9957 30.6146 56.7952 30.9527 56.5135 31.2443C56.2318 31.5327 55.8838 31.758 55.4695 31.9205C55.0552 32.0795 54.5895 32.1591 54.0724 32.1591ZM61.9027 32.1591C61.2663 32.1591 60.7045 31.9983 60.2173 31.6768C59.7301 31.352 59.349 30.8946 59.0739 30.3047C58.7988 29.7114 58.6612 29.0104 58.6612 28.2017C58.6612 27.3996 58.7988 26.7036 59.0739 26.1136C59.349 25.5237 59.7318 25.0679 60.2223 24.7464C60.7128 24.425 61.2796 24.2642 61.9226 24.2642C62.4197 24.2642 62.8125 24.3471 63.1009 24.5128C63.3925 24.6752 63.6146 24.8608 63.767 25.0696C63.9228 25.2751 64.0438 25.4441 64.13 25.5767H64.2294V21.8182L65.4027 21.8182V32H64.2692V30.8267H64.13C64.0438 30.9659 63.9212 31.1416 63.7621 31.3537C63.603 31.5625 63.3759 31.7498 63.081 31.9155C62.786 32.0779 62.3932 32.1591 61.9027 32.1591ZM62.0618 31.1051C62.5324 31.1051 62.9302 30.9825 63.255 30.7372C63.5798 30.4886 63.8267 30.1456 63.9957 29.7081C64.1648 29.2673 64.2493 28.7585 64.2493 28.1818C64.2493 27.6117 64.1664 27.1129 64.0007 26.6854C63.835 26.2545 63.5897 25.9197 63.2649 25.6811C62.9401 25.4392 62.5391 25.3182 62.0618 25.3182C61.5646 25.3182 61.1503 25.4458 60.8189 25.701C60.4908 25.9529 60.2438 26.2959 60.0781 26.7301C59.9157 27.161 59.8345 27.6449 59.8345 28.1818C59.8345 28.7254 59.9174 29.2192 60.0831 29.6634C60.2521 30.1042 60.5007 30.4555 60.8288 30.7173C61.1603 30.9759 61.5713 31.1051 62.0618 31.1051ZM74.9531 32H71.8111V21.8182H75.0923C76.08 21.8182 76.9252 22.022 77.6278 22.4297C78.3305 22.834 78.8691 23.4157 79.2436 24.1747C79.6181 24.9304 79.8054 25.8352 79.8054 26.8892C79.8054 27.9498 79.6165 28.8629 79.2386 29.6286C78.8608 30.3909 78.3106 30.9775 77.5881 31.3885C76.8655 31.7962 75.9872 32 74.9531 32ZM73.044 30.9063H74.8736C75.7154 30.9063 76.4131 30.7438 76.9666 30.419C77.5201 30.0942 77.9328 29.6319 78.2045 29.032C78.4763 28.4321 78.6122 27.7178 78.6122 26.8892C78.6122 26.0672 78.478 25.3596 78.2095 24.7663C77.9411 24.1697 77.54 23.7124 77.0064 23.3942C76.4728 23.0727 75.8082 22.9119 75.0128 22.9119H73.044V30.9063ZM84.8168 32.1591C84.1274 32.1591 83.5225 31.995 83.0021 31.6669C82.4851 31.3388 82.0807 30.8797 81.7891 30.2898C81.5007 29.6998 81.3565 29.0104 81.3565 28.2216C81.3565 27.4261 81.5007 26.7318 81.7891 26.1385C82.0807 25.5452 82.4851 25.0845 83.0021 24.7564C83.5225 24.4283 84.1274 24.2642 84.8168 24.2642C85.5062 24.2642 86.1094 24.4283 86.6264 24.7564C87.1468 25.0845 87.5511 25.5452 87.8395 26.1385C88.1312 26.7318 88.277 27.4261 88.277 28.2216C88.277 29.0104 88.1312 29.6998 87.8395 30.2898C87.5511 30.8797 87.1468 31.3388 86.6264 31.6669C86.1094 31.995 85.5062 32.1591 84.8168 32.1591ZM84.8168 31.1051C85.3404 31.1051 85.7713 30.9709 86.1094 30.7024C86.4474 30.4339 86.6977 30.081 86.8601 29.6435C87.0225 29.206 87.1037 28.732 87.1037 28.2216C87.1037 27.7112 87.0225 27.2356 86.8601 26.7947C86.6977 26.3539 86.4474 25.9976 86.1094 25.7259C85.7713 25.4541 85.3404 25.3182 84.8168 25.3182C84.2931 25.3182 83.8622 25.4541 83.5241 25.7259C83.1861 25.9976 82.9358 26.3539 82.7734 26.7947C82.611 27.2356 82.5298 27.7112 82.5298 28.2216C82.5298 28.732 82.611 29.206 82.7734 29.6435C82.9358 30.081 83.1861 30.4339 83.5241 30.7024C83.8622 30.9709 84.2931 31.1051 84.8168 31.1051ZM93.1703 32.1591C92.4544 32.1591 91.8379 31.9901 91.3208 31.652C90.8038 31.3139 90.4061 30.8482 90.1277 30.255C89.8493 29.6617 89.71 28.9839 89.71 28.2216C89.71 27.446 89.8526 26.7616 90.1376 26.1683C90.426 25.5717 90.827 25.1061 91.3407 24.7713C91.8578 24.4332 92.461 24.2642 93.1504 24.2642C93.6873 24.2642 94.1712 24.3636 94.6021 24.5625C95.033 24.7614 95.3859 25.0398 95.661 25.3977C95.9361 25.7557 96.1068 26.1733 96.1731 26.6506H94.9998C94.9103 26.3026 94.7115 25.9943 94.4032 25.7259C94.0983 25.4541 93.6873 25.3182 93.1703 25.3182C92.7129 25.3182 92.3118 25.4375 91.9672 25.6761C91.6258 25.9115 91.359 26.2446 91.1667 26.6754C90.9778 27.103 90.8833 27.6051 90.8833 28.1818C90.8833 28.7718 90.9761 29.2855 91.1618 29.723C91.3507 30.1605 91.6158 30.5002 91.9572 30.7422C92.3019 30.9841 92.7063 31.1051 93.1703 31.1051C93.4752 31.1051 93.752 31.0521 94.0005 30.946C94.2491 30.84 94.4596 30.6875 94.6319 30.4886C94.8043 30.2898 94.9269 30.0511 94.9998 29.7727H96.1731C96.1068 30.2235 95.9428 30.6295 95.6809 30.9908C95.4224 31.3487 95.0794 31.6338 94.6518 31.8459C94.2276 32.0547 93.7337 32.1591 93.1703 32.1591ZM101.209 24.3636V25.358H97.252V24.3636H101.209ZM98.4054 22.5341H99.5787V29.8125C99.5787 30.1439 99.6267 30.3925 99.7228 30.5582C99.8223 30.7206 99.9482 30.83 100.101 30.8864C100.256 30.9394 100.421 30.9659 100.593 30.9659C100.722 30.9659 100.828 30.9593 100.911 30.946C100.994 30.9295 101.06 30.9162 101.11 30.9063L101.349 31.9602C101.269 31.9901 101.158 32.0199 101.015 32.0497C100.873 32.0829 100.692 32.0994 100.474 32.0994C100.142 32.0994 99.8173 32.0282 99.4991 31.8857C99.1842 31.7431 98.9224 31.526 98.7136 31.2344C98.5081 30.9427 98.4054 30.5748 98.4054 30.1307V22.5341ZM105.994 32.1591C105.305 32.1591 104.7 31.995 104.18 31.6669C103.663 31.3388 103.258 30.8797 102.967 30.2898C102.678 29.6998 102.534 29.0104 102.534 28.2216C102.534 27.4261 102.678 26.7318 102.967 26.1385C103.258 25.5452 103.663 25.0845 104.18 24.7564C104.7 24.4283 105.305 24.2642 105.994 24.2642C106.684 24.2642 107.287 24.4283 107.804 24.7564C108.325 25.0845 108.729 25.5452 109.017 26.1385C109.309 26.7318 109.455 27.4261 109.455 28.2216C109.455 29.0104 109.309 29.6998 109.017 30.2898C108.729 30.8797 108.325 31.3388 107.804 31.6669C107.287 31.995 106.684 32.1591 105.994 32.1591ZM105.994 31.1051C106.518 31.1051 106.949 30.9709 107.287 30.7024C107.625 30.4339 107.875 30.081 108.038 29.6435C108.2 29.206 108.281 28.732 108.281 28.2216C108.281 27.7112 108.2 27.2356 108.038 26.7947C107.875 26.3539 107.625 25.9976 107.287 25.7259C106.949 25.4541 106.518 25.3182 105.994 25.3182C105.471 25.3182 105.04 25.4541 104.702 25.7259C104.364 25.9976 104.114 26.3539 103.951 26.7947C103.789 27.2356 103.708 27.7112 103.708 28.2216C103.708 28.732 103.789 29.206 103.951 29.6435C104.114 30.081 104.364 30.4339 104.702 30.7024C105.04 30.9709 105.471 31.1051 105.994 31.1051ZM111.246 32V24.3636H112.379V25.517H112.459C112.598 25.1392 112.85 24.8326 113.214 24.5973C113.579 24.362 113.99 24.2443 114.447 24.2443C114.534 24.2443 114.641 24.246 114.771 24.2493C114.9 24.2526 114.998 24.2576 115.064 24.2642V25.4574C115.024 25.4474 114.933 25.4325 114.79 25.4126C114.651 25.3894 114.504 25.3778 114.348 25.3778C113.977 25.3778 113.645 25.4557 113.354 25.6115C113.065 25.764 112.837 25.9761 112.668 26.2479C112.502 26.5163 112.419 26.8229 112.419 27.1676V32H111.246ZM121.864 26.0739L120.81 26.3722C120.744 26.1965 120.646 26.0258 120.517 25.8601C120.391 25.6911 120.218 25.5518 119.999 25.4425C119.781 25.3331 119.501 25.2784 119.159 25.2784C118.692 25.2784 118.302 25.3861 117.991 25.6016C117.683 25.8137 117.529 26.0838 117.529 26.4119C117.529 26.7036 117.635 26.9339 117.847 27.103C118.059 27.272 118.39 27.4129 118.841 27.5256L119.975 27.804C120.657 27.9697 121.166 28.2232 121.501 28.5646C121.836 28.9027 122.003 29.3385 122.003 29.8722C122.003 30.3097 121.877 30.7008 121.625 31.0455C121.377 31.3902 121.029 31.6619 120.581 31.8608C120.134 32.0597 119.613 32.1591 119.02 32.1591C118.241 32.1591 117.597 31.9901 117.086 31.652C116.576 31.3139 116.253 30.8201 116.117 30.1705L117.23 29.892C117.336 30.303 117.537 30.6113 117.832 30.8168C118.13 31.0223 118.52 31.125 119 31.125C119.547 31.125 119.981 31.009 120.303 30.777C120.628 30.5417 120.79 30.2599 120.79 29.9318C120.79 29.6667 120.697 29.4446 120.512 29.2656C120.326 29.0833 120.041 28.9474 119.656 28.858L118.384 28.5597C117.684 28.3939 117.171 28.1371 116.843 27.7891C116.518 27.4377 116.355 26.9986 116.355 26.4716C116.355 26.0407 116.476 25.6596 116.718 25.3281C116.963 24.9967 117.297 24.7365 117.718 24.5476C118.142 24.3587 118.622 24.2642 119.159 24.2642C119.915 24.2642 120.508 24.4299 120.939 24.7614C121.373 25.0928 121.682 25.5303 121.864 26.0739Z" fill="#9095A0"/>
<path d="M27.6 83.48C25.68 83.48 24 83.12 22.56 82.4C21.12 81.68 20 80.6533 19.2 79.32C18.4 77.96 18 76.3467 18 74.48H21.56C21.56 75.7333 21.8267 76.8133 22.36 77.72C22.8933 78.6267 23.6133 79.32 24.52 79.8C25.4533 80.28 26.48 80.52 27.6 80.52C28.7467 80.52 29.76 80.2933 30.64 79.84C31.52 79.36 32.2 78.64 32.68 77.68C33.1867 76.72 33.44 75.5067 33.44 74.04C33.44 72.7067 33.2133 71.6133 32.76 70.76C32.3067 69.88 31.6533 69.2267 30.8 68.8C29.9733 68.3733 29.0133 68.16 27.92 68.16C27.12 68.16 26.36 68.2933 25.64 68.56C24.92 68.8 24.2667 69.1467 23.68 69.6C23.12 70.0533 22.6533 70.6133 22.28 71.28L18.96 70.76L20.12 55.56L35.68 55.56V58.84H23.2L22.56 67.4C23.0133 67 23.52 66.64 24.08 66.32C24.6667 65.9733 25.3333 65.7067 26.08 65.52C26.8267 65.3067 27.68 65.2 28.64 65.2C30.2133 65.2 31.64 65.5067 32.92 66.12C34.2 66.7333 35.2133 67.68 35.96 68.96C36.7067 70.24 37.08 71.8933 37.08 73.92C37.08 75.92 36.6933 77.64 35.92 79.08C35.1733 80.52 34.0933 81.6133 32.68 82.36C31.2667 83.1067 29.5733 83.48 27.6 83.48ZM50.3316 83.48C48.8382 83.48 47.5049 83.2667 46.3316 82.84C45.1582 82.3867 44.1582 81.6267 43.3316 80.56C42.5049 79.4667 41.8782 78.0133 41.4516 76.2C41.0249 74.36 40.8116 72.0533 40.8116 69.28C40.8116 66.5067 41.0249 64.2133 41.4516 62.4C41.8782 60.56 42.5049 59.1067 43.3316 58.04C44.1582 56.9467 45.1582 56.1867 46.3316 55.76C47.5049 55.3067 48.8382 55.08 50.3316 55.08C51.8249 55.08 53.1449 55.3067 54.2916 55.76C55.4649 56.1867 56.4649 56.9467 57.2916 58.04C58.1182 59.1067 58.7449 60.56 59.1716 62.4C59.5982 64.2133 59.8116 66.5067 59.8116 69.28C59.8116 72.0533 59.5982 74.36 59.1716 76.2C58.7449 78.0133 58.1182 79.4667 57.2916 80.56C56.4649 81.6267 55.4649 82.3867 54.2916 82.84C53.1449 83.2667 51.8249 83.48 50.3316 83.48ZM50.3316 80.52C51.8516 80.52 53.0249 80.1333 53.8516 79.36C54.7049 78.5867 55.2916 77.44 55.6116 75.92C55.9582 74.4 56.1316 72.5067 56.1316 70.24V68.4C56.1316 66.1067 55.9582 64.2 55.6116 62.68C55.2916 61.1333 54.7049 59.9733 53.8516 59.2C53.0249 58.4267 51.8516 58.04 50.3316 58.04C48.8116 58.04 47.6249 58.4267 46.7716 59.2C45.9182 59.9733 45.3182 61.12 44.9716 62.64C44.6516 64.16 44.4916 66.0667 44.4916 68.36V70.16C44.4916 72.4267 44.6516 74.3333 44.9716 75.88C45.3182 77.4267 45.9182 78.5867 46.7716 79.36C47.6249 80.1333 48.8116 80.52 50.3316 80.52ZM73.2613 83.48C71.7679 83.48 70.4346 83.2667 69.2613 82.84C68.0879 82.3867 67.0879 81.6267 66.2613 80.56C65.4346 79.4667 64.8079 78.0133 64.3813 76.2C63.9546 74.36 63.7413 72.0533 63.7413 69.28C63.7413 66.5067 63.9546 64.2133 64.3813 62.4C64.8079 60.56 65.4346 59.1067 66.2613 58.04C67.0879 56.9467 68.0879 56.1867 69.2613 55.76C70.4346 55.3067 71.7679 55.08 73.2613 55.08C74.7546 55.08 76.0746 55.3067 77.2213 55.76C78.3946 56.1867 79.3946 56.9467 80.2213 58.04C81.0479 59.1067 81.6746 60.56 82.1013 62.4C82.5279 64.2133 82.7413 66.5067 82.7413 69.28C82.7413 72.0533 82.5279 74.36 82.1013 76.2C81.6746 78.0133 81.0479 79.4667 80.2213 80.56C79.3946 81.6267 78.3946 82.3867 77.2213 82.84C76.0746 83.2667 74.7546 83.48 73.2613 83.48ZM73.2613 80.52C74.7813 80.52 75.9546 80.1333 76.7813 79.36C77.6346 78.5867 78.2213 77.44 78.5413 75.92C78.8879 74.4 79.0613 72.5067 79.0613 70.24V68.4C79.0613 66.1067 78.8879 64.2 78.5413 62.68C78.2213 61.1333 77.6346 59.9733 76.7813 59.2C75.9546 58.4267 74.7813 58.04 73.2613 58.04C71.7413 58.04 70.5546 58.4267 69.7013 59.2C68.8479 59.9733 68.2479 61.12 67.9013 62.64C67.5813 64.16 67.4213 66.0667 67.4213 68.36V70.16C67.4213 72.4267 67.5813 74.3333 67.9013 75.88C68.2479 77.4267 68.8479 78.5867 69.7013 79.36C70.5546 80.1333 71.7413 80.52 73.2613 80.52Z" fill="#DEE1E6"/>
</g>
<defs>
<filter id="filter0_dd_26_138" x="-2" y="-2" width="396" height="144" filterUnits="userSpaceOnUse" color-interpolation-filters="sRGB">
<feFlood flood-opacity="0" result="BackgroundImageFix"/>
<feColorMatrix in="SourceAlpha" type="matrix" values="0 0 0 0 0 0 0 0 0 0 0 0 0 0 0 0 0 0 127 0" result="hardAlpha"/>
<feOffset/>
<feGaussianBlur stdDeviation="0.5"/>
<feColorMatrix type="matrix" values="0 0 0 0 0.0901961 0 0 0 0 0.101961 0 0 0 0 0.121569 0 0 0 0.07 0"/>
<feBlend mode="normal" in2="BackgroundImageFix" result="effect1_dropShadow_26_138"/>
<feColorMatrix in="SourceAlpha" type="matrix" values="0 0 0 0 0 0 0 0 0 0 0 0 0 0 0 0 0 0 127 0" result="hardAlpha"/>
<feOffset/>
<feGaussianBlur stdDeviation="1"/>
<feColorMatrix type="matrix" values="0 0 0 0 0.0901961 0 0 0 0 0.101961 0 0 0 0 0.121569 0 0 0 0.12 0"/>
<feBlend mode="normal" in2="effect1_dropShadow_26_138" result="effect2_dropShadow_26_138"/>
<feBlend mode="normal" in="SourceGraphic" in2="effect2_dropShadow_26_138" result="shape"/>
</filter>
</defs>
</svg>
