<svg width="392" height="140" viewBox="0 0 392 140" fill="none" xmlns="http://www.w3.org/2000/svg">
<g filter="url(#filter0_dd_26_122)">
<rect x="280" y="57.52" width="9.6" height="55.68" fill="#636AE8"/>
<rect x="291.733" y="22.96" width="9.6" height="90.24" fill="#CED0F8"/>
<rect x="317.333" y="49.84" width="9.6" height="63.36" fill="#636AE8"/>
<rect x="329.067" y="22" width="9.6" height="91.2" fill="#CED0F8"/>
<rect x="354.667" y="27.76" width="9.6" height="85.44" fill="#636AE8"/>
<rect x="366.4" y="28.72" width="9.6" height="84.48" fill="#CED0F8"/>
<path d="M17.5 111L22 115.5L26.5 111H17.5Z" fill="#DE3B40"/>
<path d="M17.233 32L17.233 21.8182H20.6733C21.4721 21.8182 22.125 21.9624 22.6321 22.2507C23.1425 22.5357 23.5204 22.9219 23.7656 23.4091C24.0109 23.8963 24.1335 24.4399 24.1335 25.0398C24.1335 25.6397 24.0109 26.1849 23.7656 26.6754C23.5237 27.166 23.1491 27.5571 22.642 27.8487C22.1349 28.1371 21.4853 28.2812 20.6932 28.2812H18.2273V27.1875H20.6534C21.2003 27.1875 21.6394 27.093 21.9709 26.9041C22.3023 26.7152 22.5426 26.46 22.6918 26.1385C22.8442 25.8137 22.9205 25.4474 22.9205 25.0398C22.9205 24.6321 22.8442 24.2675 22.6918 23.946C22.5426 23.6245 22.3007 23.3726 21.9659 23.1903C21.6312 23.0047 21.187 22.9119 20.6335 22.9119H18.4659L18.4659 32H17.233ZM28.2077 32.179C27.7238 32.179 27.2847 32.0878 26.8903 31.9055C26.4959 31.7199 26.1826 31.4531 25.9506 31.1051C25.7186 30.7538 25.6026 30.3295 25.6026 29.8324C25.6026 29.3949 25.6888 29.0402 25.8612 28.7685C26.0335 28.4934 26.2638 28.2779 26.5522 28.1222C26.8406 27.9664 27.1587 27.8504 27.5067 27.7741C27.8581 27.6946 28.2111 27.6316 28.5657 27.5852C29.0297 27.5256 29.4059 27.4808 29.6942 27.451C29.9859 27.4179 30.198 27.3632 30.3306 27.2869C30.4665 27.2107 30.5344 27.0781 30.5344 26.8892L30.5344 26.8494C30.5344 26.3589 30.4002 25.9777 30.1317 25.706C29.8666 25.4342 29.4639 25.2983 28.9237 25.2983C28.3635 25.2983 27.9244 25.4209 27.6062 25.6662C27.288 25.9115 27.0643 26.1733 26.935 26.4517L25.8214 26.054C26.0202 25.59 26.2854 25.2287 26.6168 24.9702C26.9516 24.7083 27.3162 24.526 27.7106 24.4233C28.1083 24.3172 28.4994 24.2642 28.8839 24.2642C29.1291 24.2642 29.4109 24.294 29.729 24.3537C30.0505 24.41 30.3604 24.5277 30.6587 24.7067C30.9603 24.8857 31.2106 25.1558 31.4094 25.517C31.6083 25.8783 31.7077 26.3622 31.7077 26.9688V32H30.5344V30.9659H30.4748C30.3952 31.1316 30.2627 31.3089 30.0771 31.4979C29.8915 31.6868 29.6445 31.8475 29.3363 31.9801C29.0281 32.1127 28.6519 32.179 28.2077 32.179ZM28.3867 31.125C28.8507 31.125 29.2418 31.0339 29.56 30.8516C29.8815 30.6693 30.1235 30.4339 30.2859 30.1456C30.4516 29.8572 30.5344 29.554 30.5344 29.2358V28.1619C30.4847 28.2216 30.3754 28.2763 30.2063 28.326C30.0406 28.3724 29.8484 28.4138 29.6296 28.4503C29.4142 28.4834 29.2037 28.5133 28.9982 28.5398C28.796 28.563 28.632 28.5829 28.506 28.5994C28.2011 28.6392 27.9161 28.7038 27.6509 28.7933C27.3891 28.8795 27.177 29.0104 27.0146 29.1861C26.8555 29.3584 26.7759 29.5937 26.7759 29.892C26.7759 30.2997 26.9267 30.608 27.2283 30.8168C27.5333 31.0223 27.9194 31.125 28.3867 31.125ZM37.1703 24.3636V25.358L33.2129 25.358V24.3636L37.1703 24.3636ZM34.3663 22.5341H35.5396V29.8125C35.5396 30.1439 35.5877 30.3925 35.6838 30.5582C35.7832 30.7206 35.9092 30.83 36.0616 30.8864C36.2174 30.9394 36.3815 30.9659 36.5538 30.9659C36.6831 30.9659 36.7891 30.9593 36.872 30.946C36.9548 30.9295 37.0211 30.9162 37.0708 30.9063L37.3095 31.9602C37.2299 31.9901 37.1189 32.0199 36.9764 32.0497C36.8339 32.0829 36.6532 32.0994 36.4345 32.0994C36.103 32.0994 35.7782 32.0282 35.46 31.8857C35.1452 31.7431 34.8833 31.526 34.6745 31.2344C34.469 30.9427 34.3663 30.5748 34.3663 30.1307V22.5341ZM38.9352 32V24.3636H40.1085V32H38.9352ZM39.5318 23.0909C39.3031 23.0909 39.1059 23.013 38.9402 22.8572C38.7778 22.7015 38.6966 22.5142 38.6966 22.2955C38.6966 22.0767 38.7778 21.8894 38.9402 21.7337C39.1059 21.5779 39.3031 21.5 39.5318 21.5C39.7605 21.5 39.956 21.5779 40.1184 21.7337C40.2842 21.8894 40.367 22.0767 40.367 22.2955C40.367 22.5142 40.2842 22.7015 40.1184 22.8572C39.956 23.013 39.7605 23.0909 39.5318 23.0909ZM45.4592 32.1591C44.7234 32.1591 44.0887 31.9967 43.555 31.6719C43.0247 31.3438 42.6154 30.8864 42.3271 30.2997C42.042 29.7098 41.8995 29.0237 41.8995 28.2415C41.8995 27.4593 42.042 26.7699 42.3271 26.1733C42.6154 25.5734 43.0165 25.1061 43.5302 24.7713C44.0472 24.4332 44.6504 24.2642 45.3398 24.2642C45.7376 24.2642 46.1303 24.3305 46.5181 24.4631C46.9059 24.5956 47.2589 24.8111 47.5771 25.1094C47.8952 25.4044 48.1488 25.7955 48.3377 26.2827C48.5266 26.7699 48.6211 27.3698 48.6211 28.0824V28.5795H42.7347V27.5653H47.4279C47.4279 27.1345 47.3417 26.75 47.1694 26.4119C47.0004 26.0739 46.7584 25.8071 46.4435 25.6115C46.132 25.416 45.7641 25.3182 45.3398 25.3182C44.8725 25.3182 44.4682 25.4342 44.1268 25.6662C43.7887 25.8949 43.5285 26.1932 43.3462 26.5611C43.1639 26.929 43.0728 27.3234 43.0728 27.7443V28.4205C43.0728 28.9972 43.1722 29.486 43.3711 29.8871C43.5733 30.2848 43.8533 30.5881 44.2113 30.7969C44.5692 31.0024 44.9852 31.1051 45.4592 31.1051C45.7674 31.1051 46.0458 31.062 46.2944 30.9759C46.5463 30.8864 46.7634 30.7538 46.9457 30.5781C47.128 30.3991 47.2688 30.1771 47.3683 29.9119L48.5018 30.2301C48.3825 30.6146 48.1819 30.9527 47.9002 31.2443C47.6185 31.5327 47.2705 31.758 46.8562 31.9205C46.4419 32.0795 45.9762 32.1591 45.4592 32.1591ZM51.5792 27.4063L51.5792 32H50.4059L50.4059 24.3636H51.5394V25.5568H51.6388C51.8178 25.169 52.0896 24.8575 52.4542 24.6222C52.8188 24.3835 53.2894 24.2642 53.8661 24.2642C54.3832 24.2642 54.8356 24.3703 55.2234 24.5824C55.6112 24.7912 55.9128 25.1094 56.1282 25.5369C56.3436 25.9612 56.4513 26.4981 56.4513 27.1477L56.4513 32H55.2781L55.2781 27.2273C55.2781 26.6274 55.1223 26.16 54.8107 25.8253C54.4992 25.4872 54.0716 25.3182 53.5281 25.3182C53.1535 25.3182 52.8188 25.3994 52.5238 25.5618C52.2321 25.7242 52.0018 25.9612 51.8327 26.2727C51.6637 26.5843 51.5792 26.9621 51.5792 27.4063ZM61.9164 24.3636V25.358H57.959V24.3636H61.9164ZM59.1124 22.5341H60.2857V29.8125C60.2857 30.1439 60.3337 30.3925 60.4299 30.5582C60.5293 30.7206 60.6552 30.83 60.8077 30.8864C60.9635 30.9394 61.1275 30.9659 61.2999 30.9659C61.4292 30.9659 61.5352 30.9593 61.6181 30.946C61.7009 30.9295 61.7672 30.9162 61.8169 30.9063L62.0556 31.9602C61.976 31.9901 61.865 32.0199 61.7225 32.0497C61.58 32.0829 61.3993 32.0994 61.1806 32.0994C60.8491 32.0994 60.5243 32.0282 60.2061 31.8857C59.8913 31.7431 59.6294 31.526 59.4206 31.2344C59.2151 30.9427 59.1124 30.5748 59.1124 30.1307V22.5341ZM68.9537 26.0739L67.8997 26.3722C67.8334 26.1965 67.7356 26.0258 67.6064 25.8601C67.4804 25.6911 67.3081 25.5518 67.0893 25.4425C66.8706 25.3331 66.5905 25.2784 66.2491 25.2784C65.7818 25.2784 65.3923 25.3861 65.0808 25.6016C64.7725 25.8137 64.6184 26.0838 64.6184 26.4119C64.6184 26.7036 64.7245 26.9339 64.9366 27.103C65.1487 27.272 65.4802 27.4129 65.9309 27.5256L67.0645 27.804C67.7472 27.9697 68.256 28.2232 68.5907 28.5646C68.9255 28.9027 69.0929 29.3385 69.0929 29.8722C69.0929 30.3097 68.9669 30.7008 68.715 31.0455C68.4664 31.3902 68.1184 31.6619 67.671 31.8608C67.2235 32.0597 66.7032 32.1591 66.1099 32.1591C65.331 32.1591 64.6864 31.9901 64.176 31.652C63.6655 31.3139 63.3424 30.8201 63.2065 30.1705L64.3201 29.892C64.4262 30.303 64.6267 30.6113 64.9217 30.8168C65.22 31.0223 65.6094 31.125 66.09 31.125C66.6369 31.125 67.0711 31.009 67.3926 30.777C67.7174 30.5417 67.8798 30.2599 67.8798 29.9318C67.8798 29.6667 67.787 29.4446 67.6014 29.2656C67.4158 29.0833 67.1307 28.9474 66.7463 28.858L65.4735 28.5597C64.7742 28.3939 64.2605 28.1371 63.9324 27.7891C63.6075 27.4377 63.4451 26.9986 63.4451 26.4716C63.4451 26.0407 63.5661 25.6596 63.8081 25.3281C64.0533 24.9967 64.3864 24.7365 64.8074 24.5476C65.2316 24.3587 65.7122 24.2642 66.2491 24.2642C67.0048 24.2642 67.5981 24.4299 68.0289 24.7614C68.4631 25.0928 68.7714 25.5303 68.9537 26.0739ZM80.5238 24.3636C80.4641 23.8598 80.2222 23.4688 79.7979 23.1903C79.3737 22.9119 78.8533 22.7727 78.2369 22.7727C77.7861 22.7727 77.3917 22.8456 77.0536 22.9915C76.7189 23.1373 76.457 23.3378 76.2681 23.593C76.0825 23.8482 75.9897 24.1383 75.9897 24.4631C75.9897 24.7348 76.0543 24.9685 76.1836 25.1641C76.3162 25.3563 76.4852 25.517 76.6907 25.6463C76.8962 25.7723 77.1116 25.8767 77.337 25.9595C77.5624 26.0391 77.7695 26.1037 77.9585 26.1534L78.9925 26.4318C79.2577 26.5014 79.5527 26.5975 79.8775 26.7202C80.2056 26.8428 80.5188 27.0102 80.8171 27.2223C81.1187 27.4311 81.3673 27.6996 81.5629 28.0277C81.7584 28.3558 81.8562 28.7585 81.8562 29.2358C81.8562 29.786 81.712 30.2831 81.4237 30.7273C81.1386 31.1714 80.721 31.5244 80.1708 31.7862C79.6239 32.0481 78.9594 32.179 78.1772 32.179C77.448 32.179 76.8166 32.0613 76.283 31.826C75.7527 31.5907 75.3351 31.2625 75.0302 30.8416C74.7286 30.4207 74.5579 29.9318 74.5181 29.375H75.7908C75.824 29.7595 75.9532 30.0777 76.1786 30.3295C76.4073 30.5781 76.6957 30.7637 77.0437 30.8864C77.395 31.0057 77.7728 31.0653 78.1772 31.0653C78.6478 31.0653 79.0704 30.9891 79.445 30.8366C79.8195 30.6809 80.1161 30.4654 80.3349 30.1903C80.5536 29.9119 80.663 29.5871 80.663 29.2159C80.663 28.8778 80.5685 28.6027 80.3796 28.3906C80.1907 28.1785 79.9421 28.0062 79.6339 27.8736C79.3256 27.741 78.9925 27.625 78.6346 27.5256L77.3817 27.1676C76.5863 26.9389 75.9566 26.6125 75.4925 26.1882C75.0285 25.764 74.7965 25.2088 74.7965 24.5227C74.7965 23.9527 74.9506 23.4555 75.2589 23.0313C75.5704 22.6037 75.988 22.2723 76.5117 22.0369C77.0387 21.7983 77.627 21.679 78.2766 21.679C78.9329 21.679 79.5162 21.7966 80.0266 22.032C80.5371 22.264 80.9414 22.5821 81.2397 22.9865C81.5413 23.3909 81.7004 23.8499 81.717 24.3636H80.5238ZM86.926 32.1591C86.1902 32.1591 85.5555 31.9967 85.0218 31.6719C84.4915 31.3438 84.0822 30.8864 83.7939 30.2997C83.5088 29.7098 83.3663 29.0237 83.3663 28.2415C83.3663 27.4593 83.5088 26.7699 83.7939 26.1733C84.0822 25.5734 84.4833 25.1061 84.997 24.7713C85.514 24.4332 86.1172 24.2642 86.8066 24.2642C87.2044 24.2642 87.5971 24.3305 87.9849 24.4631C88.3727 24.5956 88.7257 24.8111 89.0439 25.1094C89.362 25.4044 89.6156 25.7955 89.8045 26.2827C89.9934 26.7699 90.0879 27.3698 90.0879 28.0824V28.5795L84.2015 28.5795V27.5653L88.8947 27.5653C88.8947 27.1345 88.8085 26.75 88.6362 26.4119C88.4672 26.0739 88.2252 25.8071 87.9103 25.6115C87.5988 25.416 87.2309 25.3182 86.8066 25.3182C86.3393 25.3182 85.935 25.4342 85.5936 25.6662C85.2555 25.8949 84.9953 26.1932 84.813 26.5611C84.6307 26.929 84.5396 27.3234 84.5396 27.7443V28.4205C84.5396 28.9972 84.639 29.486 84.8379 29.8871C85.0401 30.2848 85.3201 30.5881 85.6781 30.7969C86.036 31.0024 86.452 31.1051 86.926 31.1051C87.2342 31.1051 87.5126 31.062 87.7612 30.9759C88.0131 30.8864 88.2302 30.7538 88.4125 30.5781C88.5948 30.3991 88.7356 30.1771 88.835 29.9119L89.9686 30.2301C89.8493 30.6146 89.6487 30.9527 89.367 31.2443C89.0853 31.5327 88.7373 31.758 88.323 31.9205C87.9087 32.0795 87.443 32.1591 86.926 32.1591ZM91.8727 32V24.3636L93.0062 24.3636V25.517H93.0858C93.225 25.1392 93.4769 24.8326 93.8414 24.5973C94.206 24.362 94.617 24.2443 95.0744 24.2443C95.1606 24.2443 95.2683 24.246 95.3975 24.2493C95.5268 24.2526 95.6246 24.2576 95.6909 24.2642V25.4574C95.6511 25.4474 95.56 25.4325 95.4174 25.4126C95.2782 25.3894 95.1307 25.3778 94.975 25.3778C94.6038 25.3778 94.2723 25.4557 93.9806 25.6115C93.6923 25.764 93.4636 25.9761 93.2946 26.2479C93.1288 26.5163 93.046 26.8229 93.046 27.1676V32H91.8727ZM103.558 24.3636L100.735 32H99.5414L96.7175 24.3636H97.9902L100.098 30.4489H100.178L102.286 24.3636H103.558ZM108.035 32.1591C107.3 32.1591 106.665 31.9967 106.131 31.6719C105.601 31.3438 105.192 30.8864 104.903 30.2997C104.618 29.7098 104.476 29.0237 104.476 28.2415C104.476 27.4593 104.618 26.7699 104.903 26.1733C105.192 25.5734 105.593 25.1061 106.106 24.7713C106.623 24.4332 107.227 24.2642 107.916 24.2642C108.314 24.2642 108.706 24.3305 109.094 24.4631C109.482 24.5956 109.835 24.8111 110.153 25.1094C110.471 25.4044 110.725 25.7955 110.914 26.2827C111.103 26.7699 111.197 27.3698 111.197 28.0824V28.5795H105.311V27.5653H110.004C110.004 27.1345 109.918 26.75 109.746 26.4119C109.577 26.0739 109.335 25.8071 109.02 25.6115C108.708 25.416 108.34 25.3182 107.916 25.3182C107.449 25.3182 107.044 25.4342 106.703 25.6662C106.365 25.8949 106.105 26.1932 105.922 26.5611C105.74 26.929 105.649 27.3234 105.649 27.7443V28.4205C105.649 28.9972 105.748 29.486 105.947 29.8871C106.149 30.2848 106.43 30.5881 106.787 30.7969C107.145 31.0024 107.561 31.1051 108.035 31.1051C108.344 31.1051 108.622 31.062 108.871 30.9759C109.122 30.8864 109.34 30.7538 109.522 30.5781C109.704 30.3991 109.845 30.1771 109.944 29.9119L111.078 30.2301C110.959 30.6146 110.758 30.9527 110.476 31.2443C110.195 31.5327 109.847 31.758 109.432 31.9205C109.018 32.0795 108.552 32.1591 108.035 32.1591ZM115.866 32.1591C115.229 32.1591 114.667 31.9983 114.18 31.6768C113.693 31.352 113.312 30.8946 113.037 30.3047C112.762 29.7114 112.624 29.0104 112.624 28.2017C112.624 27.3996 112.762 26.7036 113.037 26.1136C113.312 25.5237 113.695 25.0679 114.185 24.7464C114.676 24.425 115.242 24.2642 115.885 24.2642C116.383 24.2642 116.775 24.3471 117.064 24.5128C117.355 24.6752 117.577 24.8608 117.73 25.0696C117.886 25.2751 118.007 25.4441 118.093 25.5767H118.192V21.8182H119.366V32H118.232V30.8267H118.093C118.007 30.9659 117.884 31.1416 117.725 31.3537C117.566 31.5625 117.339 31.7498 117.044 31.9155C116.749 32.0779 116.356 32.1591 115.866 32.1591ZM116.025 31.1051C116.495 31.1051 116.893 30.9825 117.218 30.7372C117.543 30.4886 117.79 30.1456 117.959 29.7081C118.128 29.2673 118.212 28.7585 118.212 28.1818C118.212 27.6117 118.129 27.1129 117.964 26.6854C117.798 26.2545 117.553 25.9197 117.228 25.6811C116.903 25.4392 116.502 25.3182 116.025 25.3182C115.528 25.3182 115.113 25.4458 114.782 25.701C114.454 25.9529 114.207 26.2959 114.041 26.7301C113.879 27.161 113.797 27.6449 113.797 28.1818C113.797 28.7254 113.88 29.2192 114.046 29.6634C114.215 30.1042 114.464 30.4555 114.792 30.7173C115.123 30.9759 115.534 31.1051 116.025 31.1051Z" fill="#9095A0"/>
<path d="M18.68 83V80H25.6V61H18.64V58.76C19.6267 58.68 20.64 58.5333 21.68 58.32C22.7467 58.1067 23.7867 57.7733 24.8 57.32C25.8133 56.84 26.7333 56.2267 27.56 55.48H29.16L29.16 80H35.68V83H18.68ZM48.3394 83.48C46.846 83.48 45.5127 83.2667 44.3394 82.84C43.166 82.3867 42.166 81.6267 41.3394 80.56C40.5127 79.4667 39.886 78.0133 39.4594 76.2C39.0327 74.36 38.8194 72.0533 38.8194 69.28C38.8194 66.5067 39.0327 64.2133 39.4594 62.4C39.886 60.56 40.5127 59.1067 41.3394 58.04C42.166 56.9467 43.166 56.1867 44.3394 55.76C45.5127 55.3067 46.846 55.08 48.3394 55.08C49.8327 55.08 51.1527 55.3067 52.2994 55.76C53.4727 56.1867 54.4727 56.9467 55.2994 58.04C56.126 59.1067 56.7527 60.56 57.1794 62.4C57.606 64.2133 57.8194 66.5067 57.8194 69.28C57.8194 72.0533 57.606 74.36 57.1794 76.2C56.7527 78.0133 56.126 79.4667 55.2994 80.56C54.4727 81.6267 53.4727 82.3867 52.2994 82.84C51.1527 83.2667 49.8327 83.48 48.3394 83.48ZM48.3394 80.52C49.8594 80.52 51.0327 80.1333 51.8594 79.36C52.7127 78.5867 53.2994 77.44 53.6194 75.92C53.966 74.4 54.1394 72.5067 54.1394 70.24V68.4C54.1394 66.1067 53.966 64.2 53.6194 62.68C53.2994 61.1333 52.7127 59.9733 51.8594 59.2C51.0327 58.4267 49.8594 58.04 48.3394 58.04C46.8194 58.04 45.6327 58.4267 44.7794 59.2C43.926 59.9733 43.326 61.12 42.9794 62.64C42.6594 64.16 42.4994 66.0667 42.4994 68.36V70.16C42.4994 72.4267 42.6594 74.3333 42.9794 75.88C43.326 77.4267 43.926 78.5867 44.7794 79.36C45.6327 80.1333 46.8194 80.52 48.3394 80.52ZM71.2691 83.48C69.7757 83.48 68.4424 83.2667 67.2691 82.84C66.0957 82.3867 65.0957 81.6267 64.2691 80.56C63.4424 79.4667 62.8157 78.0133 62.3891 76.2C61.9624 74.36 61.7491 72.0533 61.7491 69.28C61.7491 66.5067 61.9624 64.2133 62.3891 62.4C62.8157 60.56 63.4424 59.1067 64.2691 58.04C65.0957 56.9467 66.0957 56.1867 67.2691 55.76C68.4424 55.3067 69.7757 55.08 71.2691 55.08C72.7624 55.08 74.0824 55.3067 75.2291 55.76C76.4024 56.1867 77.4024 56.9467 78.2291 58.04C79.0557 59.1067 79.6824 60.56 80.1091 62.4C80.5357 64.2133 80.7491 66.5067 80.7491 69.28C80.7491 72.0533 80.5357 74.36 80.1091 76.2C79.6824 78.0133 79.0557 79.4667 78.2291 80.56C77.4024 81.6267 76.4024 82.3867 75.2291 82.84C74.0824 83.2667 72.7624 83.48 71.2691 83.48ZM71.2691 80.52C72.7891 80.52 73.9624 80.1333 74.7891 79.36C75.6424 78.5867 76.2291 77.44 76.5491 75.92C76.8957 74.4 77.0691 72.5067 77.0691 70.24V68.4C77.0691 66.1067 76.8957 64.2 76.5491 62.68C76.2291 61.1333 75.6424 59.9733 74.7891 59.2C73.9624 58.4267 72.7891 58.04 71.2691 58.04C69.7491 58.04 68.5624 58.4267 67.7091 59.2C66.8557 59.9733 66.2557 61.12 65.9091 62.64C65.5891 64.16 65.4291 66.0667 65.4291 68.36V70.16C65.4291 72.4267 65.5891 74.3333 65.9091 75.88C66.2557 77.4267 66.8557 78.5867 67.7091 79.36C68.5624 80.1333 69.7491 80.52 71.2691 80.52ZM94.1988 83.48C92.7054 83.48 91.3721 83.2667 90.1988 82.84C89.0254 82.3867 88.0254 81.6267 87.1988 80.56C86.3721 79.4667 85.7454 78.0133 85.3188 76.2C84.8921 74.36 84.6788 72.0533 84.6788 69.28C84.6788 66.5067 84.8921 64.2133 85.3188 62.4C85.7454 60.56 86.3721 59.1067 87.1988 58.04C88.0254 56.9467 89.0254 56.1867 90.1988 55.76C91.3721 55.3067 92.7054 55.08 94.1988 55.08C95.6921 55.08 97.0121 55.3067 98.1588 55.76C99.3321 56.1867 100.332 56.9467 101.159 58.04C101.985 59.1067 102.612 60.56 103.039 62.4C103.465 64.2133 103.679 66.5067 103.679 69.28C103.679 72.0533 103.465 74.36 103.039 76.2C102.612 78.0133 101.985 79.4667 101.159 80.56C100.332 81.6267 99.3321 82.3867 98.1588 82.84C97.0121 83.2667 95.6921 83.48 94.1988 83.48ZM94.1988 80.52C95.7188 80.52 96.8921 80.1333 97.7188 79.36C98.5721 78.5867 99.1588 77.44 99.4788 75.92C99.8254 74.4 99.9988 72.5067 99.9988 70.24V68.4C99.9988 66.1067 99.8254 64.2 99.4788 62.68C99.1588 61.1333 98.5721 59.9733 97.7188 59.2C96.8921 58.4267 95.7188 58.04 94.1988 58.04C92.6788 58.04 91.4921 58.4267 90.6388 59.2C89.7854 59.9733 89.1854 61.12 88.8388 62.64C88.5188 64.16 88.3588 66.0667 88.3588 68.36V70.16C88.3588 72.4267 88.5188 74.3333 88.8388 75.88C89.1854 77.4267 89.7854 78.5867 90.6388 79.36C91.4921 80.1333 92.6788 80.52 94.1988 80.52ZM117.128 83.48C115.635 83.48 114.302 83.2667 113.128 82.84C111.955 82.3867 110.955 81.6267 110.128 80.56C109.302 79.4667 108.675 78.0133 108.248 76.2C107.822 74.36 107.608 72.0533 107.608 69.28C107.608 66.5067 107.822 64.2133 108.248 62.4C108.675 60.56 109.302 59.1067 110.128 58.04C110.955 56.9467 111.955 56.1867 113.128 55.76C114.302 55.3067 115.635 55.08 117.128 55.08C118.622 55.08 119.942 55.3067 121.088 55.76C122.262 56.1867 123.262 56.9467 124.088 58.04C124.915 59.1067 125.542 60.56 125.968 62.4C126.395 64.2133 126.608 66.5067 126.608 69.28C126.608 72.0533 126.395 74.36 125.968 76.2C125.542 78.0133 124.915 79.4667 124.088 80.56C123.262 81.6267 122.262 82.3867 121.088 82.84C119.942 83.2667 118.622 83.48 117.128 83.48ZM117.128 80.52C118.648 80.52 119.822 80.1333 120.648 79.36C121.502 78.5867 122.088 77.44 122.408 75.92C122.755 74.4 122.928 72.5067 122.928 70.24V68.4C122.928 66.1067 122.755 64.2 122.408 62.68C122.088 61.1333 121.502 59.9733 120.648 59.2C119.822 58.4267 118.648 58.04 117.128 58.04C115.608 58.04 114.422 58.4267 113.568 59.2C112.715 59.9733 112.115 61.12 111.768 62.64C111.448 64.16 111.288 66.0667 111.288 68.36V70.16C111.288 72.4267 111.448 74.3333 111.768 75.88C112.115 77.4267 112.715 78.5867 113.568 79.36C114.422 80.1333 115.608 80.52 117.128 80.52Z" fill="#DEE1E6"/>
</g>
<defs>
<filter id="filter0_dd_26_122" x="-2" y="-2" width="396" height="144" filterUnits="userSpaceOnUse" color-interpolation-filters="sRGB">
<feFlood flood-opacity="0" result="BackgroundImageFix"/>
<feColorMatrix in="SourceAlpha" type="matrix" values="0 0 0 0 0 0 0 0 0 0 0 0 0 0 0 0 0 0 127 0" result="hardAlpha"/>
<feOffset/>
<feGaussianBlur stdDeviation="0.5"/>
<feColorMatrix type="matrix" values="0 0 0 0 0.0901961 0 0 0 0 0.101961 0 0 0 0 0.121569 0 0 0 0.07 0"/>
<feBlend mode="normal" in2="BackgroundImageFix" result="effect1_dropShadow_26_122"/>
<feColorMatrix in="SourceAlpha" type="matrix" values="0 0 0 0 0 0 0 0 0 0 0 0 0 0 0 0 0 0 127 0" result="hardAlpha"/>
<feOffset/>
<feGaussianBlur stdDeviation="1"/>
<feColorMatrix type="matrix" values="0 0 0 0 0.0901961 0 0 0 0 0.101961 0 0 0 0 0.121569 0 0 0 0.12 0"/>
<feBlend mode="normal" in2="effect1_dropShadow_26_122" result="effect2_dropShadow_26_122"/>
<feBlend mode="normal" in="SourceGraphic" in2="effect2_dropShadow_26_122" result="shape"/>
</filter>
</defs>
</svg>
